HIERARCHY
ROOT Hips
{
	OFFSET 0.000000 0.000000 0.000000
	CHANNELS 6 Xposition Yposition Zposition Xrotation Yrotation Zrotation
	JOINT LeftUpLeg_virtual
	{
		OFFSET 0.000000 0.000000 0.000000
		CHANNELS 3 Xrotation Yrotation Zrotation
		JOINT LeftUpLeg
		{
			OFFSET 13.026900 -6.336304 -1.092800
			CHANNELS 3 Xrotation Yrotation Zrotation
			JOINT LeftLeg
			{
				OFFSET 0.524474 -46.096886 9.782700
				CHANNELS 3 Xrotation Yrotation Zrotation
				JOINT LeftFoot
				{
					OFFSET -0.524474 -53.427422 -12.948200
					CHANNELS 3 Xrotation Yrotation Zrotation
					JOINT LeftToeBase
					{
						OFFSET 0.192200 -14.009700 16.364100
						CHANNELS 3 Xrotation Yrotation Zrotation
						JOINT LeftToe_End
						{
							OFFSET -1.784700 -0.561700 9.474800
							CHANNELS 3 Xrotation Yrotation Zrotation
							End Site
							{
								OFFSET 0 0 0
							}
						}
					}
				}
			}
		}
	}
	JOINT RightUpLeg_virtual
	{
		OFFSET 0.000000 0.000000 0.000000
		CHANNELS 3 Xrotation Yrotation Zrotation
		JOINT RightUpLeg
		{
			OFFSET -12.883000 -6.336304 -1.092800
			CHANNELS 3 Xrotation Yrotation Zrotation
			JOINT RightLeg
			{
				OFFSET -0.524587 -46.096825 9.782800
				CHANNELS 3 Xrotation Yrotation Zrotation
				JOINT RightFoot
				{
					OFFSET 0.524587 -53.427383 -12.948300
					CHANNELS 3 Xrotation Yrotation Zrotation
					JOINT RightToeBase
					{
						OFFSET -0.192200 -14.009700 16.364100
						CHANNELS 3 Xrotation Yrotation Zrotation
						JOINT RightToe_End
						{
							OFFSET 1.784700 -0.561700 9.474800
							CHANNELS 3 Xrotation Yrotation Zrotation
							End Site
							{
								OFFSET 0 0 0
							}
						}
					}
				}
			}
		}
	}
	JOINT Spine_virtual
	{
		OFFSET 0.000000 0.000000 0.000000
		CHANNELS 3 Xrotation Yrotation Zrotation
		JOINT Spine
		{
			OFFSET 0.072000 7.257294 -0.789700
			CHANNELS 3 Xrotation Yrotation Zrotation
			JOINT Spine1
			{
				OFFSET 0.000000 12.508769 -0.658067
				CHANNELS 3 Xrotation Yrotation Zrotation
				JOINT Spine1_split
				{
					OFFSET 0.000000 12.508769 -0.658067
					CHANNELS 3 Xrotation Yrotation Zrotation
					JOINT Spine2
					{
						OFFSET 0.000000 12.508769 -0.658067
						CHANNELS 3 Xrotation Yrotation Zrotation
						JOINT Neck_virtual
						{
							OFFSET 0.000000 0.000000 0.000000
							CHANNELS 3 Xrotation Yrotation Zrotation
							JOINT Neck
							{
								OFFSET 0.000000 14.033295 7.520400
								CHANNELS 3 Xrotation Yrotation Zrotation
								JOINT Head
								{
									OFFSET 0.000000 8.198502 5.703100
									CHANNELS 3 Xrotation Yrotation Zrotation
									JOINT HeadTop_End
									{
										OFFSET 0.000000 17.760803 13.332701
										CHANNELS 3 Xrotation Yrotation Zrotation
										End Site
										{
											OFFSET 0 0 0
										}
									}
								}
							}
						}
						JOINT LeftShoulder_virtual
						{
							OFFSET 0.000000 0.000000 0.000000
							CHANNELS 3 Xrotation Yrotation Zrotation
							JOINT LeftShoulder
							{
								OFFSET 6.292450 5.785301 -0.669000
								CHANNELS 3 Xrotation Yrotation Zrotation
								JOINT LeftShoulder_split
								{
									OFFSET 6.292450 5.785301 -0.669000
									CHANNELS 3 Xrotation Yrotation Zrotation
									JOINT LeftArm
									{
										OFFSET 13.907140 -6.093903 1.965100
										CHANNELS 3 Xrotation Yrotation Zrotation
										JOINT LeftForeArm
										{
											OFFSET 34.140198 0.000000 0.000000
											CHANNELS 3 Xrotation Yrotation Zrotation
											JOINT LeftHand
											{
												OFFSET 40.960209 0.000000 0.000000
												CHANNELS 3 Xrotation Yrotation Zrotation
												End Site
												{
													OFFSET 0 0 0
												}
											}
										}
									}
								}
							}
						}
						JOINT RightShoulder_virtual
						{
							OFFSET 0.000000 0.000000 0.000000
							CHANNELS 3 Xrotation Yrotation Zrotation
							JOINT RightShoulder
							{
								OFFSET -6.292450 5.785301 -0.669000
								CHANNELS 3 Xrotation Yrotation Zrotation
								JOINT RightShoulder_split
								{
									OFFSET -6.292450 5.785301 -0.669000
									CHANNELS 3 Xrotation Yrotation Zrotation
									JOINT RightArm
									{
										OFFSET -13.907140 -6.093903 1.965100
										CHANNELS 3 Xrotation Yrotation Zrotation
										JOINT RightForeArm
										{
											OFFSET -34.140198 0.000000 0.000000
											CHANNELS 3 Xrotation Yrotation Zrotation
											JOINT RightHand
											{
												OFFSET -40.960209 0.000000 0.000000
												CHANNELS 3 Xrotation Yrotation Zrotation
												End Site
												{
													OFFSET 0 0 0
												}
											}
										}
									}
								}
							}
						}
					}
				}
			}
		}
	}
}
MOTION
Frames: 5
Frame Time: 0.03333333
7.110593 116.883728 0.702145 0.000000 0.000000 0.000000 -1.755792 -15.722747 -3.610663 -12.556590 23.326392 11.011137 16.844078 10.343962 4.347949 -5.166943 7.316985 -8.900195 1.710230 0.198062 -0.934512 0.000000 0.000000 0.000000 -1.321899 -13.522052 -3.656387 -11.271249 -19.224664 -6.099936 9.959094 9.196305 -3.515057 1.318053 8.485049 6.030314 -1.717732 -0.199046 0.411148 0.000000 0.000000 0.000000 -2.538553 -14.702906 -4.399749 0.622977 -0.567639 -0.395748 0.205865 -0.992087 -0.557797 1.059971 -0.961390 0.131401 0.000000 0.000000 0.000000 0.959484 -0.469412 -0.600154 1.198687 1.226609 2.474159 -0.997675 14.677595 -1.244696 0.000000 0.000000 0.000000 0.581016 -0.264910 -0.676479 -0.509786 8.970291 -0.204468 -5.686649 0.167740 -1.026109 40.770502 -59.866048 -27.661759 0.096118 -28.477000 1.418288 0.000000 0.000000 0.000000 1.093456 -0.522763 -1.047359 5.273627 4.821495 -14.326436 1.186494 4.422174 -0.371448 -39.886584 -17.870657 40.618418 179.790591 70.764025 179.945623 0.000000 0.000000 0.000000 
6.827916 116.916740 0.688541 0.000000 0.000000 0.000000 -1.741247 -15.378639 -3.586792 -12.583678 23.165406 11.230902 16.818747 10.342426 4.382560 -5.047427 7.078075 -9.128863 1.678393 0.203447 -0.921531 0.000000 0.000000 0.000000 -1.293243 -13.188281 -3.636037 -11.176874 -19.007527 -6.056660 10.091669 9.112118 -3.197222 1.046365 7.913396 5.645489 -1.528618 -0.207314 0.395288 0.000000 0.000000 0.000000 -2.517728 -14.369606 -4.374335 0.585361 -0.548380 -0.285884 0.207173 -0.990012 -0.475091 1.048855 -0.861310 0.118951 0.000000 0.000000 0.000000 0.913661 -0.483576 -0.509587 1.125529 1.217084 2.374169 -1.071463 14.524216 -1.218087 0.000000 0.000000 0.000000 0.533859 -0.252640 -0.605566 -0.481210 8.947794 -0.362437 -5.684831 0.008095 -0.975980 40.887541 -60.115473 -27.555782 0.048883 -28.463082 1.394292 0.000000 0.000000 0.000000 1.072748 -0.509888 -0.983554 5.236874 4.918657 -13.499994 1.167378 4.397700 -0.432353 -37.333206 -15.274849 40.865162 179.919477 71.493106 179.857719 0.000000 0.000000 0.000000 
6.525724 116.966896 0.676403 0.000000 0.000000 0.000000 -1.718705 -14.996053 -3.562993 -12.608451 22.933670 11.462196 16.785198 10.335417 4.401581 -4.902501 6.853997 -9.361463 1.668602 0.211700 -0.912542 0.000000 0.000000 0.000000 -1.259490 -12.829610 -3.618856 -11.051985 -18.811698 -5.987623 10.195913 9.040017 -2.894371 0.806821 7.345376 5.277876 -1.369656 -0.211637 0.368634 0.000000 0.000000 0.000000 -2.479306 -14.019754 -4.351538 0.539567 -0.536496 -0.176174 0.212546 -0.998309 -0.399748 1.041344 -0.769218 0.092634 0.000000 0.000000 0.000000 0.874214 -0.502139 -0.428751 1.043716 1.210592 2.323053 -1.127203 14.369212 -1.171008 0.000000 0.000000 0.000000 0.496256 -0.249795 -0.541365 -0.452806 8.916947 -0.473685 -5.655611 -0.148948 -0.948426 40.907728 -60.388619 -27.511172 -0.007279 -28.387875 1.358926 0.000000 0.000000 0.000000 1.054482 -0.505908 -0.924093 5.185944 5.008609 -12.545347 1.153028 4.372145 -0.502516 -34.712001 -12.550292 41.012827 -179.923930 72.351921 179.746045 0.000000 0.000000 0.000000 
6.208508 117.028900 0.674084 0.000000 0.000000 0.000000 -1.674861 -14.573435 -3.524493 -12.627399 22.638809 11.682458 16.723103 10.320266 4.411851 -4.731395 6.646779 -9.603064 1.667237 0.222063 -0.904975 0.000000 0.000000 0.000000 -1.211925 -12.443739 -3.592183 -10.915129 -18.650557 -5.902407 10.269429 8.995636 -2.625914 0.612768 6.809015 4.960626 -1.280020 -0.212778 0.340022 0.000000 0.000000 0.000000 -2.417737 -13.651975 -4.318981 0.483975 -0.533265 -0.072038 0.219467 -1.013813 -0.337065 1.033875 -0.664599 0.057492 0.000000 0.000000 0.000000 0.837642 -0.523233 -0.362827 0.944073 1.202711 2.323982 -1.174433 14.201223 -1.093100 0.000000 0.000000 0.000000 0.462709 -0.252009 -0.490406 -0.428609 8.887699 -0.522119 -5.594589 -0.298741 -0.933464 40.836977 -60.688314 -27.541264 -0.070094 -28.241567 1.313906 0.000000 0.000000 0.000000 1.035283 -0.509076 -0.874944 5.124391 5.090923 -11.469079 1.124983 4.322276 -0.561847 -31.990741 -9.676032 41.014203 -179.731906 73.347066 179.605493 0.000000 0.000000 0.000000 
5.888093 117.090179 0.690643 0.000000 0.000000 0.000000 -1.605043 -14.118380 -3.462387 -12.641893 22.300337 11.881465 16.626065 10.295352 4.416855 -4.535828 6.452736 -9.855390 1.662168 0.232259 -0.895810 0.000000 0.000000 0.000000 -1.138595 -12.032299 -3.544143 -10.784060 -18.543421 -5.812016 10.328254 8.982156 -2.407437 0.432897 6.317748 4.664422 -1.212389 -0.211101 0.318443 0.000000 0.000000 0.000000 -2.334447 -13.275158 -4.268791 0.422188 -0.540302 0.021184 0.225431 -1.032402 -0.289535 1.023989 -0.571646 0.022817 0.000000 0.000000 0.000000 0.799292 -0.544224 -0.313858 0.819698 1.187116 2.365940 -1.213839 14.004529 -0.978012 0.000000 0.000000 0.000000 0.428228 -0.256306 -0.453961 -0.413756 8.866951 -0.501412 -5.510927 -0.435871 -0.921225 40.695978 -61.005945 -27.643679 -0.135375 -28.033897 1.266592 0.000000 0.000000 0.000000 1.010308 -0.515405 -0.837497 5.055082 5.161488 -10.297076 1.107091 4.248050 -0.608934 -29.160492 -6.662259 40.856873 -179.515198 74.477407 179.447511 0.000000 0.000000 0.000000 
